<?xml version="1.0" encoding="utf-8"?>
<!-- Generator: Adobe Illustrator 21.1.0, SVG Export Plug-In . SVG Version: 6.00 Build 0)  -->
<svg version="1.1" id="Layer_1" xmlns="http://www.w3.org/2000/svg" xmlns:xlink="http://www.w3.org/1999/xlink" x="0px" y="0px"
	 viewBox="0 0 660 1000" style="enable-background:new 0 0 660 1000;" xml:space="preserve">
<style type="text/css">
	.st0{enable-background:new    ;}
	.st1{font-family:'Helvetica';}
	.st2{font-size:48px;}
	.st3{fill:none;}
	.st4{font-family:'Helvetica-Light';}
	.st5{font-size:24px;}
	.st6{font-size:36px;}
</style>
<text transform="matrix(1 0 0 1 251.2735 38.5873)" class="st0"><tspan x="0" y="0" class="st1 st2">1970s: </tspan><tspan x="-206.8" y="57.6" class="st1 st2">Rise of Boys’ Love Manga </tspan></text>
<rect x="0" y="125" class="st3" width="660" height="226.5"/>
<text transform="matrix(1 0 0 1 9.155273e-05 142.2723)"><tspan x="0" y="0" class="st4 st5">Boys’ Love Manga became more popular and widely written </tspan><tspan x="0" y="28.8" class="st4 st5">in the 1970s, at the same time that female artists began </tspan><tspan x="0" y="57.6" class="st4 st5">taking over the shojo genre. Initially, these stories of love be</tspan><tspan x="640.3" y="57.6" class="st4 st5">-</tspan><tspan x="0" y="86.4" class="st4 st5">tween male characters were not sexual, and were known as </tspan><tspan x="0" y="115.2" class="st4 st5">shonen-ai. In the late 1970s and early 1980s, more sexually </tspan><tspan x="0" y="144" class="st4 st5">explicit stories were published, and were known as yaoi. </tspan></text>
<rect y="496.5" class="st3" width="660" height="380"/>
<text transform="matrix(1 0 0 1 0 513.7677)"><tspan x="0" y="0" class="st4 st5">Kaze tells the story of the lives of and relationship between </tspan><tspan x="0" y="28.8" class="st4 st5">two boys living in the city of Provence, France in the early </tspan><tspan x="0" y="57.6" class="st4 st5">19th century. This sets the stage for many following yaoi </tspan><tspan x="0" y="86.4" class="st4 st5">which also take place in far-off European cities in history, al</tspan><tspan x="634.9" y="86.4" class="st4 st5">-</tspan><tspan x="0" y="115.2" class="st4 st5">lowing readers to transport themselves to a different time and </tspan><tspan x="0" y="144" class="st4 st5">place.</tspan><tspan x="0" y="172.8" class="st4 st5">As you can see in the spread on the next pages, Kaze is very </tspan><tspan x="0" y="201.6" class="st4 st5">visually interesting and “breaks all the rules,” like other </tspan><tspan x="0" y="230.4" class="st4 st5">manga in the shojo genre. Additonally, the protagonists, </tspan><tspan x="0" y="259.2" class="st4 st5">Serge and Gilbert, are androgynous, with long, thin limbs, flat </tspan><tspan x="0" y="288" class="st4 st5">chests, and feminine faces with large, expressive eyes and </tspan><tspan x="0" y="316.8" class="st4 st5">prominent eyelashes. Kaze is sited as the groundbreaking </tspan><tspan x="0" y="345.6" class="st4 st5">first manga with explicit homosexual themes. </tspan></text>
<text transform="matrix(1 0 0 1 28.5353 381.4799)" class="st0"><tspan x="0" y="0" class="st1 st2">First Yaoi: Kaze to Ki no Uta</tspan><tspan x="-10.7" y="43.2" class="st1 st6"> “The Poem of the Wind and the Trees” </tspan><tspan x="149.4" y="86.4" class="st1 st6">by Keiko Takemiya</tspan></text>
</svg>
